<?xml version="1.0" standalone="no"?>
<!DOCTYPE svg PUBLIC "-//W3C//DTD SVG 20010904//EN"
 "http://www.w3.org/TR/2001/REC-SVG-20010904/DTD/svg10.dtd">
<svg version="1.0" xmlns="http://www.w3.org/2000/svg"
 width="428.000000pt" height="428.000000pt" viewBox="0 0 428.000000 428.000000"
 preserveAspectRatio="xMidYMid meet">
<metadata>
Created by potrace 1.14, written by Peter Selinger 2001-2017
</metadata>
<g transform="translate(0.000000,428.000000) scale(0.100000,-0.100000)"
fill="#000000" stroke="none">
<path d="M3158 4133 c-2 -86 -7 -148 -13 -150 -6 -2 -29 14 -51 35 -35 31 -44
48 -54 97 -7 33 -14 64 -17 68 -9 16 -33 -16 -33 -44 0 -54 -28 -102 -80 -139
-87 -61 -93 -66 -86 -78 4 -7 22 -12 39 -12 40 0 94 -32 106 -62 5 -13 13 -41
17 -62 13 -57 31 -56 39 3 9 69 75 151 120 151 16 0 17 -17 13 -215 -2 -118
-7 -218 -11 -222 -5 -4 -16 -2 -25 5 -16 11 -161 82 -207 102 -191 80 -549
100 -875 48 -69 -11 -134 -20 -144 -21 -17 -2 -23 10 -37 68 -27 114 -40 145
-103 238 -41 62 -67 84 -136 114 -125 55 -247 56 -373 3 -39 -16 -77 -30 -83
-30 -20 0 -109 -114 -144 -185 -32 -65 -35 -78 -38 -187 -3 -92 0 -128 13
-170 29 -88 65 -151 110 -192 l43 -40 -26 -35 c-15 -20 -36 -45 -48 -56 -28
-27 -86 -119 -115 -180 -12 -27 -26 -52 -30 -55 -16 -12 -111 -265 -138 -370
-16 -63 -39 -151 -51 -195 -43 -159 -72 -386 -75 -598 -3 -181 -5 -199 -24
-223 -12 -15 -21 -31 -21 -37 0 -5 -20 -39 -44 -76 -24 -36 -51 -79 -60 -96
-9 -16 -28 -48 -41 -70 -35 -60 -77 -141 -239 -465 -81 -162 -152 -304 -158
-315 -6 -11 -25 -56 -41 -100 -26 -70 -30 -97 -33 -210 -5 -154 -1 -151 66 40
50 144 95 265 120 320 10 22 41 96 70 165 103 247 166 378 260 540 24 41 67
120 96 175 37 73 56 100 70 100 29 0 34 16 23 89 -26 186 60 688 186 1086 79
248 188 439 318 555 64 57 69 75 17 56 -30 -10 -34 -8 -78 33 -90 84 -128 201
-116 353 11 148 81 251 212 314 62 30 75 32 172 33 98 1 110 -1 172 -31 76
-36 140 -96 180 -169 35 -65 60 -172 48 -212 -12 -43 3 -52 65 -41 264 45 540
54 759 25 122 -16 166 -33 166 -64 0 -14 2 -14 9 -3 8 12 16 11 52 -6 l43 -20
-33 -8 c-38 -8 -25 -25 15 -20 14 1 24 -3 24 -10 0 -20 -24 -35 -48 -28 -16 4
-22 1 -22 -11 0 -9 5 -16 12 -16 6 0 4 -6 -7 -13 -13 -10 -16 -21 -11 -41 4
-18 3 -25 -4 -21 -6 3 -10 -3 -10 -15 0 -13 4 -19 12 -14 8 5 9 0 6 -14 -7
-26 10 -90 29 -113 7 -8 13 -28 13 -43 0 -15 9 -41 21 -58 21 -28 22 -29 42
-11 11 10 17 12 13 5 -11 -18 10 -39 43 -47 23 -5 28 -11 25 -31 -1 -13 2 -22
7 -18 18 11 31 -7 17 -24 -7 -10 -9 -14 -4 -10 4 4 19 3 32 -2 18 -7 24 -6 24
4 0 8 6 17 13 20 6 3 -1 4 -18 3 -24 -2 -30 2 -30 18 0 14 6 19 18 17 11 -2
17 4 17 17 0 11 5 23 10 26 6 3 10 16 10 28 0 18 -2 19 -10 7 -8 -13 -10 -12
-11 5 -1 11 -1 24 0 29 3 14 -20 66 -30 68 -5 0 -15 1 -21 2 -7 1 -16 5 -20
10 -3 5 -5 -12 -5 -37 1 -26 6 -47 10 -47 4 0 3 -9 -3 -19 -7 -15 -6 -23 6
-35 8 -9 11 -16 6 -16 -5 0 -17 11 -26 25 -9 14 -22 24 -29 22 -6 -1 -11 6 -9
16 3 19 -24 24 -31 5 -3 -7 -6 28 -7 77 0 50 -5 110 -9 134 -11 57 0 97 25 93
10 -2 22 -9 27 -15 5 -9 10 -8 16 3 6 8 13 11 17 7 4 -3 1 -13 -5 -21 -12 -14
-8 -36 7 -36 4 0 12 11 19 25 7 16 8 25 1 25 -7 0 -6 5 1 14 9 11 7 15 -11 19
-12 4 -25 2 -28 -3 -10 -16 -49 1 -47 21 2 26 27 34 27 9 0 -11 5 -20 10 -20
6 0 10 5 10 10 0 15 36 12 50 -5 7 -8 20 -15 30 -15 13 0 17 -6 14 -22 -2 -13
-2 -17 2 -10 8 17 51 15 62 -4 7 -13 25 -20 56 -23 5 -1 3 -8 -4 -16 -7 -8 -9
-15 -4 -15 5 0 1 -5 -8 -11 -9 -5 -15 -16 -12 -23 3 -8 -6 -26 -20 -41 -29
-31 -24 -59 10 -52 17 3 24 -2 28 -20 6 -22 26 -33 26 -13 0 18 18 11 25 -10
3 -11 11 -20 17 -20 6 0 6 6 -2 15 -9 10 -9 15 -1 15 6 0 11 8 11 17 0 13 -3
14 -11 6 -18 -18 -52 27 -36 46 10 12 9 14 -5 8 -19 -7 -25 8 -7 18 6 5 4 12
-8 21 -15 11 -15 14 -3 15 8 1 18 1 21 1 4 -1 5 8 2 18 -4 14 0 20 11 20 10 0
14 -4 11 -10 -3 -5 0 -10 7 -10 11 0 11 -2 0 -9 -10 -6 -10 -10 2 -20 11 -9
15 -9 19 1 3 10 12 7 33 -10 76 -59 75 -58 95 -33 11 13 19 18 19 13 0 -6 -4
-13 -9 -17 -5 -3 -7 -22 -4 -41 5 -29 2 -39 -12 -46 -14 -8 -15 -12 -4 -19 18
-11 74 48 61 64 -7 8 -6 18 3 31 12 16 12 23 0 47 -14 26 -14 29 7 41 13 7 27
11 33 9 5 -1 6 1 2 6 -5 4 -13 9 -18 9 -5 1 -13 2 -18 3 -5 0 0 19 10 41 11
23 17 45 14 50 -3 6 1 10 9 10 19 0 21 -23 5 -51 -9 -19 -9 -19 10 -10 11 6
28 11 38 11 12 -1 8 -5 -12 -14 l-30 -13 28 -6 c41 -11 74 1 81 29 5 19 13 24
37 24 26 0 30 -3 27 -22 -2 -13 -7 -26 -13 -30 -18 -13 1 -18 33 -9 18 6 50 8
72 6 22 -2 41 -1 41 3 1 4 3 17 4 30 3 29 10 36 31 28 15 -6 15 -9 -6 -31 -12
-13 -20 -30 -17 -37 3 -8 6 -6 6 6 1 13 6 17 21 13 10 -3 18 0 17 5 -1 6 3 12
10 15 12 4 12 -36 -1 -74 -5 -17 -3 -23 7 -23 9 0 17 3 20 8 2 4 2 1 1 -5 -2
-7 1 -13 6 -13 6 0 10 -4 10 -8 0 -5 -10 -8 -22 -8 -22 1 -23 -3 -23 -63 0
-42 -4 -66 -12 -68 -7 -3 -13 2 -13 11 0 9 -5 16 -11 16 -6 0 -9 -9 -6 -20 3
-11 1 -20 -4 -20 -5 0 -9 -7 -9 -15 0 -8 9 -15 20 -15 17 0 19 -5 14 -25 -4
-15 -2 -25 5 -25 6 0 11 -7 11 -15 0 -18 26 -20 36 -3 4 6 -1 17 -12 25 -16
12 -17 15 -4 23 13 9 13 11 1 19 -12 8 -11 15 3 46 10 21 16 52 14 71 -2 19 0
34 5 34 6 0 7 -28 4 -67 -4 -51 -2 -62 6 -47 16 28 15 193 -2 203 -10 6 -11
14 -3 27 10 17 11 16 17 -9 6 -24 25 -39 25 -19 -1 24 -14 52 -25 52 -15 0
-14 32 1 37 5 1 24 -26 42 -62 26 -51 32 -76 31 -122 0 -32 -3 -52 -6 -45 -8
21 -23 13 -23 -14 0 -16 4 -23 11 -18 14 8 3 -49 -17 -88 -17 -33 -24 -35 -24
-7 0 11 4 18 9 15 13 -9 21 20 14 54 -7 37 -23 49 -23 18 0 -13 -3 -33 -6 -46
-5 -18 -9 -20 -20 -11 -12 10 -14 5 -9 -33 4 -36 2 -47 -11 -52 -9 -4 -14 -13
-10 -21 3 -8 2 -15 -2 -15 -13 0 -28 15 -35 33 -7 19 -22 22 -32 7 -11 -18
-35 -10 -45 15 -12 30 -43 23 -38 -9 2 -15 9 -20 26 -19 16 2 22 -2 22 -17 0
-11 5 -20 10 -20 6 0 10 6 10 14 0 12 20 26 36 26 2 0 3 -13 2 -30 -1 -16 -6
-30 -11 -30 -5 0 -15 -7 -23 -15 -9 -8 -26 -15 -39 -15 -13 0 -27 -5 -30 -10
-10 -16 -35 8 -28 26 3 8 12 13 19 10 11 -4 11 -1 -1 18 -8 12 -12 26 -8 29 3
4 1 7 -5 7 -7 0 -12 -4 -12 -10 0 -5 -5 -10 -11 -10 -5 0 -7 5 -4 10 3 6 -1
10 -11 10 -14 0 -14 -3 -4 -15 7 -9 19 -14 27 -11 20 8 16 -19 -7 -39 -19 -18
-20 -17 -20 3 0 12 -4 22 -9 22 -14 0 -24 71 -12 83 14 14 14 30 1 22 -5 -3
-10 -2 -10 3 0 13 47 24 71 17 11 -4 19 -2 19 4 0 24 -123 3 -142 -24 -5 -6
-11 -5 -17 4 -10 16 -35 5 -25 -11 4 -6 -1 -8 -15 -3 -12 4 -21 2 -21 -4 0 -6
-9 -11 -21 -11 -15 0 -19 -4 -15 -16 3 -9 6 -18 6 -20 0 -3 5 -2 12 2 8 5 9 2
5 -9 -9 -25 20 -21 33 4 11 20 12 20 25 3 11 -16 15 -16 30 -4 15 13 15 15 -7
24 -23 10 -23 10 6 14 16 2 34 -2 40 -9 8 -9 8 -10 -3 -4 -11 6 -13 4 -8 -8 4
-11 -3 -23 -19 -36 -20 -16 -24 -25 -18 -43 3 -13 11 -26 17 -30 7 -4 6 -12
-4 -24 -13 -16 -14 -14 -19 21 -3 21 -11 40 -19 43 -11 4 -12 -5 -7 -41 6 -38
4 -47 -11 -56 -17 -10 -17 -10 0 -11 14 0 18 -6 15 -25 -2 -13 2 -24 7 -25 6
0 12 15 15 34 4 29 8 34 20 26 13 -9 13 -11 0 -20 -10 -6 -11 -10 -2 -10 6 0
12 -9 12 -20 0 -11 5 -20 10 -20 6 0 10 -15 10 -34 0 -26 -4 -33 -17 -32 -14
1 -17 -5 -15 -24 4 -34 4 -54 1 -124 -2 -39 2 -61 9 -64 7 -2 12 -14 12 -27 0
-13 4 -26 9 -30 5 -3 13 -20 16 -38 4 -17 40 -102 80 -187 147 -311 187 -521
150 -772 -21 -138 -31 -175 -86 -312 -83 -206 -185 -349 -423 -594 -121 -123
-138 -152 -52 -86 27 20 52 32 56 28 15 -15 28 -133 36 -316 l6 -178 29 0 29
0 0 82 c0 76 -17 218 -40 328 -24 117 -27 103 41 177 92 102 100 110 175 208
83 107 139 196 182 286 22 48 37 68 54 72 13 2 77 19 143 36 66 17 146 35 178
41 l57 11 0 75 c0 41 -3 74 -7 74 -19 -1 -35 -19 -27 -31 6 -11 3 -10 -10 1
-16 12 -20 12 -30 -1 -8 -11 -24 -14 -58 -11 -27 2 -48 7 -48 11 0 7 102 45
153 55 l27 6 0 91 0 91 -52 -7 c-61 -9 -68 -10 -88 -18 -8 -3 -36 -8 -62 -12
-27 -3 -48 -12 -48 -18 0 -8 -3 -8 -9 2 -7 10 -13 11 -30 2 -17 -10 -21 -9
-21 4 0 9 9 15 23 16 50 1 141 25 164 41 6 5 37 12 67 15 51 5 56 8 56 31 0
23 -2 24 -47 17 -27 -4 -79 -17 -118 -29 -38 -13 -89 -26 -112 -30 l-42 -6 -5
42 c-5 44 -25 187 -33 246 -5 30 -3 32 25 32 17 0 64 -4 104 -9 40 -6 108 -13
151 -16 73 -6 77 -6 77 14 0 23 -12 27 -115 35 -166 14 -257 30 -262 45 -13
39 -61 135 -120 243 -70 128 -89 177 -70 179 7 1 41 0 77 0 36 -1 100 5 144
13 85 17 96 15 96 -15 0 -30 20 -22 27 11 6 32 33 52 88 64 17 4 54 16 83 28
50 20 52 22 52 59 l0 38 -100 -52 c-54 -28 -102 -48 -106 -44 -10 9 45 79 68
85 25 6 23 39 -4 53 -39 21 -67 60 -74 105 -6 40 -8 43 -20 27 -7 -10 -14 -29
-14 -43 0 -27 -64 -89 -91 -90 -9 0 -21 -6 -28 -13 -14 -17 4 -37 34 -37 36 0
65 -36 65 -80 l0 -38 -67 -8 c-95 -12 -230 -11 -242 1 -6 7 -6 27 0 60 6 28
13 108 17 179 l7 130 35 8 c156 36 266 116 308 223 17 42 24 50 44 47 113 -12
168 -14 168 -4 0 7 -10 14 -22 16 -13 3 -52 11 -88 19 l-65 13 -7 65 c-3 35
-11 91 -17 124 -16 87 -36 469 -36 702 0 148 -3 203 -12 203 -18 0 -27 -139
-18 -310 14 -301 20 -450 17 -460 -2 -6 -23 9 -46 33 -37 39 -113 83 -172 101
-30 9 -34 39 -34 246 0 246 -10 390 -26 390 -11 0 -12 -59 -7 -307 l6 -308
-79 -12 c-152 -24 -276 -117 -306 -229 -7 -24 -15 -44 -19 -44 -10 0 -119 67
-142 87 -19 18 -20 26 -14 416 7 390 6 397 -13 397 -18 0 -20 -9 -22 -147z
m-85 -144 l30 -26 -48 -47 c-53 -50 -60 -53 -69 -31 -3 9 -21 22 -40 30 -48
20 -51 30 -16 55 17 12 43 40 57 63 l26 41 14 -30 c8 -16 29 -41 46 -55z m602
-419 c4 -12 15 -20 30 -20 18 0 22 4 18 20 -7 28 15 25 26 -3 10 -25 39 -53
47 -45 3 3 -2 13 -11 21 -8 9 -15 21 -15 28 0 6 12 -1 27 -17 17 -18 28 -24
31 -16 5 17 32 15 32 -3 0 -8 -9 -15 -20 -15 -10 0 -24 -8 -29 -17 -9 -16 -12
-16 -21 -3 -6 9 -10 10 -10 3 0 -6 5 -15 10 -18 6 -3 10 -11 10 -16 0 -6 -8
-3 -17 7 -17 17 -18 17 -22 -1 -4 -25 -41 -64 -41 -44 0 8 -13 23 -30 34 -19
13 -25 22 -17 27 19 11 2 19 -45 21 -36 2 -42 4 -32 14 7 7 25 13 39 13 27 0
27 0 11 25 -16 24 -15 25 3 25 11 0 23 -9 26 -20z m35 11 c0 -6 -4 -13 -10
-16 -5 -3 -10 1 -10 9 0 9 5 16 10 16 6 0 10 -4 10 -9z m-150 -41 c-8 -6 -24
-16 -35 -22 l-20 -11 20 21 c11 11 27 21 35 21 13 1 13 0 0 -9z m340 -41 c0
-3 -12 -11 -27 -18 -21 -10 -28 -9 -34 1 -6 9 -2 14 12 16 11 2 23 10 26 19 5
12 7 12 14 1 5 -7 9 -16 9 -19z m-933 -5 c-3 -3 -12 -4 -19 -1 -8 3 -5 6 6 6
11 1 17 -2 13 -5z m524 -7 c-6 -8 -8 -17 -4 -20 3 -4 1 -7 -5 -7 -6 0 -9 -7
-6 -15 4 -8 1 -15 -5 -15 -6 0 -11 7 -11 15 0 19 22 55 34 55 4 0 3 -6 -3 -13z
m85 4 c-3 -5 -15 -7 -26 -4 -28 7 -25 13 6 13 14 0 23 -4 20 -9z m33 -30 c9
-6 10 -11 2 -15 -6 -4 -11 -1 -11 6 -1 8 -6 6 -15 -6 -8 -11 -18 -17 -21 -13
-7 7 14 37 25 37 3 0 12 -4 20 -9z m-172 -53 c-3 -8 -6 -5 -6 6 -1 11 2 17 5
13 3 -3 4 -12 1 -19z m358 2 c3 -5 1 -10 -4 -10 -6 0 -11 5 -11 10 0 6 2 10 4
10 3 0 8 -4 11 -10z m-866 -127 c1 -24 -4 -43 -9 -43 -6 0 -9 26 -9 63 2 69
17 53 18 -20z m517 65 c4 -6 3 -8 -4 -4 -5 3 -13 0 -15 -6 -3 -8 -6 -6 -6 5
-1 19 14 23 25 5z m-566 -45 c-1 -28 -3 -34 -10 -22 -8 14 -3 59 6 59 2 0 4
-17 4 -37z m330 -51 c0 -4 -9 -8 -20 -9 -22 -2 -27 13 -7 20 14 5 27 -1 27
-11z m-310 -24 c5 -13 9 -17 9 -10 1 6 6 12 11 12 6 0 10 -29 10 -67 l-1 -68
-16 30 c-11 20 -12 30 -4 33 17 6 13 19 -11 45 -26 26 -33 47 -18 47 6 0 15
-10 20 -22z m340 -13 c0 -8 -4 -15 -10 -15 -5 0 -10 7 -10 15 0 8 5 15 10 15
6 0 10 -7 10 -15z m550 -165 c0 -5 -4 -10 -10 -10 -5 0 -10 5 -10 10 0 6 5 10
10 10 6 0 10 -4 10 -10z m-700 -10 c0 -5 -2 -10 -4 -10 -3 0 -8 5 -11 10 -3 6
-1 10 4 10 6 0 11 -4 11 -10z m980 -362 c29 -32 38 -58 22 -58 -5 0 -15 -11
-22 -25 -18 -34 -27 -32 -44 10 -8 19 -20 35 -25 35 -16 0 -13 18 7 45 22 32
27 31 62 -7z m-433 -70 c-3 -7 -5 -2 -5 12 0 14 2 19 5 13 2 -7 2 -19 0 -25z
m330 -1170 c-3 -8 -6 -5 -6 6 -1 11 2 17 5 13 3 -3 4 -12 1 -19z m83 -94 c0
-8 -5 -12 -10 -9 -6 4 -8 11 -5 16 9 14 15 11 15 -7z"/>
<path d="M3735 3520 c27 -12 35 -12 35 0 0 6 -12 10 -27 9 -25 0 -26 -1 -8 -9z"/>
<path d="M2004 4165 c-18 -44 -19 -95 -1 -95 8 0 19 17 25 39 25 81 6 126 -24
56z"/>
<path d="M2813 3445 c0 -44 2 -61 4 -37 2 23 2 59 0 80 -2 20 -4 1 -4 -43z"/>
<path d="M3069 3428 c-6 -21 -7 -47 -3 -62 5 -15 8 -16 15 -5 12 19 11 69 -1
69 -5 0 -10 -1 -11 -2z"/>
<path d="M2960 3394 c0 -8 5 -12 10 -9 6 4 8 11 5 16 -9 14 -15 11 -15 -7z"/>
<path d="M3122 3388 c-14 -14 -16 -42 -3 -34 5 3 11 -1 14 -8 3 -8 1 -17 -6
-20 -8 -3 -8 -5 -1 -5 6 -1 9 -12 6 -26 -2 -15 0 -25 7 -25 6 0 11 7 11 15 0
8 8 22 18 32 22 21 35 53 22 53 -5 0 -14 -8 -19 -17 -9 -16 -12 -16 -20 -3 -7
9 -6 17 1 21 11 7 3 29 -11 29 -4 0 -12 -5 -19 -12z"/>
<path d="M3660 3361 c0 -12 28 -22 35 -12 3 5 -2 12 -11 15 -21 8 -24 8 -24
-3z"/>
<path d="M3983 3333 c-9 -3 -13 -26 -13 -64 0 -38 4 -58 10 -54 6 3 10 24 10
45 0 31 3 38 15 34 10 -4 15 0 15 11 0 9 -4 14 -9 10 -5 -3 -11 1 -13 8 -2 8
-9 12 -15 10z"/>
<path d="M3738 3323 c6 -2 18 -2 25 0 6 3 1 5 -13 5 -14 0 -19 -2 -12 -5z"/>
<path d="M3578 3313 c6 -2 18 -2 25 0 6 3 1 5 -13 5 -14 0 -19 -2 -12 -5z"/>
<path d="M3640 3310 c-8 -5 -28 -10 -45 -11 -26 0 -27 -2 -10 -9 16 -7 13 -9
-17 -9 -43 -1 -46 -5 -50 -54 -1 -26 -7 -37 -18 -37 -13 0 -13 -1 0 -10 21
-14 30 -12 30 5 0 8 5 15 10 15 6 0 10 -9 10 -20 0 -11 5 -20 10 -20 9 0 15
42 13 88 -1 13 5 17 75 42 17 7 32 16 32 21 0 12 -21 11 -40 -1z"/>
<path d="M730 3268 c-1 -50 -55 -129 -98 -142 -35 -11 -27 -36 11 -36 66 -1
97 -59 97 -179 0 -45 4 -81 8 -81 20 0 32 28 32 73 0 60 34 143 73 178 l30 26
-21 19 c-11 10 -31 26 -44 36 -16 11 -30 36 -41 77 -19 69 -47 85 -47 29z m30
-92 c0 -7 14 -28 32 -45 l32 -31 -21 -37 c-28 -48 -37 -51 -53 -14 -6 16 -20
37 -31 47 -25 22 -24 37 4 68 25 29 37 33 37 12z"/>
<path d="M3085 3290 c3 -5 13 -10 21 -10 8 0 14 5 14 10 0 6 -9 10 -21 10 -11
0 -17 -4 -14 -10z"/>
<path d="M3250 3292 c0 -15 28 -34 39 -28 5 3 7 -3 4 -14 -3 -11 0 -26 6 -34
6 -7 9 -21 5 -30 -3 -9 -1 -16 5 -16 6 0 11 7 11 15 0 8 7 15 15 15 8 0 15 7
15 16 0 11 -6 14 -21 9 -14 -5 -20 -3 -18 7 4 31 -2 59 -11 53 -5 -3 -19 -1
-30 5 -11 6 -20 7 -20 2z"/>
<path d="M3760 3285 c0 -9 5 -15 11 -13 6 2 11 8 11 13 0 5 -5 11 -11 13 -6 2
-11 -4 -11 -13z"/>
<path d="M3321 3274 c0 -11 3 -14 6 -6 3 7 2 16 -1 19 -3 4 -6 -2 -5 -13z"/>
<path d="M3340 3250 c0 -5 5 -10 10 -10 6 0 10 5 10 10 0 6 -4 10 -10 10 -5 0
-10 -4 -10 -10z"/>
<path d="M3255 3240 c3 -5 11 -10 16 -10 6 0 7 5 4 10 -3 6 -11 10 -16 10 -6
0 -7 -4 -4 -10z"/>
<path d="M3658 3243 c7 -3 16 -2 19 1 4 3 -2 6 -13 5 -11 0 -14 -3 -6 -6z"/>
<path d="M2980 3224 c0 -8 -4 -12 -10 -9 -5 3 -10 -2 -10 -11 0 -16 1 -16 20
1 22 20 26 35 10 35 -5 0 -10 -7 -10 -16z"/>
<path d="M3381 3198 c1 -43 1 -43 11 -13 6 17 15 36 21 43 7 9 4 12 -12 12
-18 0 -21 -6 -20 -42z"/>
<path d="M3600 3210 c0 -5 9 -10 21 -10 11 0 17 5 14 10 -3 6 -13 10 -21 10
-8 0 -14 -4 -14 -10z"/>
<path d="M3468 3163 c7 -3 16 -2 19 1 4 3 -2 6 -13 5 -11 0 -14 -3 -6 -6z"/>
<path d="M3503 3143 c-17 -6 -17 -40 -1 -45 17 -6 52 28 43 41 -6 11 -21 13
-42 4z"/>
<path d="M3678 3143 c6 -2 18 -2 25 0 6 3 1 5 -13 5 -14 0 -19 -2 -12 -5z"/>
<path d="M3738 3143 c7 -3 16 -2 19 1 4 3 -2 6 -13 5 -11 0 -14 -3 -6 -6z"/>
<path d="M1780 3111 c0 -5 35 -34 78 -65 44 -30 85 -62 92 -71 7 -8 18 -15 24
-15 6 0 44 -25 85 -56 101 -77 128 -88 172 -66 21 10 35 26 37 40 4 25 -10 29
-28 7 -7 -8 -19 -15 -27 -15 -22 0 -103 44 -168 92 -33 24 -80 57 -105 74 -25
17 -63 43 -84 57 -39 27 -76 35 -76 18z"/>
<path d="M3840 3100 c0 -5 5 -10 10 -10 6 0 10 5 10 10 0 6 -4 10 -10 10 -5 0
-10 -4 -10 -10z"/>
<path d="M3180 3091 c0 -5 5 -13 10 -16 6 -3 10 -2 10 4 0 5 -4 13 -10 16 -5
3 -10 2 -10 -4z"/>
<path d="M3357 3051 c-12 -58 -9 -101 8 -101 18 0 20 31 3 49 -10 11 -10 13 0
7 13 -8 15 13 3 54 -7 24 -7 24 -14 -9z"/>
<path d="M3415 3060 c4 -13 2 -20 -6 -20 -9 0 -8 -5 3 -17 11 -15 12 -24 3
-51 -6 -18 -15 -29 -19 -25 -5 5 -6 -3 -3 -17 5 -19 1 -29 -15 -39 -16 -10
-19 -19 -15 -47 3 -19 2 -34 -4 -34 -5 0 -9 11 -9 24 0 46 -9 55 -47 49 -29
-5 -34 -3 -31 12 2 10 -3 20 -9 22 -8 3 -13 -5 -13 -22 0 -20 -4 -26 -16 -21
-8 3 -12 2 -9 -4 3 -6 -1 -10 -10 -10 -9 0 -14 4 -11 9 8 12 -21 34 -34 26 -6
-4 -18 -1 -26 6 -19 15 -25 9 -17 -19 4 -18 8 -20 19 -11 17 14 29 6 21 -14
-3 -8 -26 -18 -51 -21 -25 -4 -46 -12 -46 -18 0 -7 -28 -8 -90 -4 -99 8 -117
-2 -53 -29 27 -12 69 -16 148 -15 134 1 147 0 115 -10 -24 -8 -24 -8 -2 -9 14
-1 26 -10 32 -25 5 -13 22 -28 39 -34 17 -6 31 -15 31 -19 0 -15 60 -35 86
-29 13 4 30 18 36 31 6 14 15 25 20 25 4 0 8 7 8 15 0 27 -25 16 -44 -20 -14
-25 -26 -35 -44 -35 -21 0 -23 3 -18 26 4 15 2 32 -5 40 -6 8 -8 14 -3 15 5 0
1 3 -8 7 -15 6 -14 10 8 29 21 19 25 20 23 5 -1 -9 1 -25 5 -34 8 -17 9 -17
31 0 19 14 21 22 14 46 -11 38 6 102 28 111 10 3 13 9 8 13 -14 10 -17 32 -5
32 5 0 14 18 20 40 9 34 8 44 -7 65 -22 30 -37 32 -28 5z m-95 -266 c0 -8 -5
-12 -10 -9 -6 4 -8 11 -5 16 9 14 15 11 15 -7z m-49 -12 c-12 -23 4 -52 29
-52 15 0 20 -7 20 -24 0 -29 -18 -44 -26 -22 -3 9 -13 16 -21 16 -9 0 -13 6
-9 15 3 8 1 15 -4 15 -6 0 -10 9 -10 19 0 11 -6 23 -12 27 -9 6 -5 10 12 15
14 4 26 7 28 8 1 1 -2 -7 -7 -17z"/>
<path d="M3470 3070 c0 -5 5 -10 10 -10 6 0 10 5 10 10 0 6 -4 10 -10 10 -5 0
-10 -4 -10 -10z"/>
<path d="M2947 3053 c-11 -11 -8 -20 7 -20 8 0 12 6 9 14 -6 15 -7 15 -16 6z"/>
<path d="M3220 3049 c0 -5 5 -7 10 -4 6 3 10 8 10 11 0 2 -4 4 -10 4 -5 0 -10
-5 -10 -11z"/>
<path d="M3250 3021 c0 -10 6 -21 13 -24 10 -4 13 2 9 19 -5 28 -22 32 -22 5z"/>
<path d="M2975 2988 c4 -12 14 -32 22 -43 13 -18 14 -17 11 20 -2 29 -8 41
-21 43 -16 3 -18 0 -12 -20z"/>
<path d="M3246 2962 c-4 -13 -5 -26 -2 -29 10 -11 18 4 14 29 l-4 23 -8 -23z"/>
<path d="M3173 2943 c-37 -7 -26 -19 18 -20 27 -1 39 2 36 10 -4 13 -21 17
-54 10z"/>
<path d="M3056 2914 c-4 -14 -11 -22 -16 -19 -6 3 -10 1 -10 -4 0 -14 27 -14
35 -1 9 15 25 12 25 -4 0 -8 -8 -16 -17 -18 -15 -3 -14 -6 6 -17 48 -27 55 37
7 71 -23 17 -24 17 -30 -8z"/>
<path d="M3307 2934 c-11 -11 3 -24 18 -18 8 4 12 10 9 15 -6 11 -18 12 -27 3z"/>
<path d="M2373 2909 c-7 -7 -13 -18 -13 -24 0 -7 -9 -20 -20 -30 -24 -22 -26
-48 -4 -43 26 5 56 52 52 82 -2 22 -5 25 -15 15z"/>
<path d="M3465 2880 c3 -5 8 -10 11 -10 2 0 4 5 4 10 0 6 -5 10 -11 10 -5 0
-7 -4 -4 -10z"/>
<path d="M3510 2824 c0 -16 5 -36 10 -44 6 -10 7 -2 3 25 -7 49 -13 58 -13 19z"/>
<path d="M3426 2824 c-8 -22 4 -40 15 -23 11 18 11 39 0 39 -5 0 -12 -7 -15
-16z"/>
<path d="M1720 2762 c-69 -26 -124 -86 -145 -157 -27 -91 -24 -154 11 -206 46
-68 109 -107 203 -125 58 -11 86 -12 100 -5 11 6 27 11 36 11 30 0 114 73 137
120 32 63 31 181 -1 233 -74 121 -218 175 -341 129z m119 -67 c30 -15 41 -33
41 -68 0 -52 -68 -74 -130 -42 -26 13 -30 21 -30 55 0 63 55 88 119 55z"/>
<path d="M3584 2762 c-18 -12 -25 -42 -10 -42 8 0 16 11 18 25 3 14 5 25 4 25
0 0 -6 -4 -12 -8z"/>
<path d="M3586 2684 c-9 -22 -7 -82 2 -88 4 -2 9 20 10 50 3 55 -1 67 -12 38z"/>
<path d="M3460 2671 c0 -6 5 -13 10 -16 6 -3 10 1 10 9 0 9 -4 16 -10 16 -5 0
-10 -4 -10 -9z"/>
<path d="M3406 2634 c-4 -15 -5 -29 -1 -32 3 -3 5 3 5 12 0 10 6 16 12 14 12
-4 38 14 38 26 0 3 -11 6 -24 6 -17 0 -26 -7 -30 -26z"/>
<path d="M3365 2620 c3 -5 8 -10 11 -10 2 0 4 5 4 10 0 6 -5 10 -11 10 -5 0
-7 -4 -4 -10z"/>
<path d="M3454 2585 c-1 -14 2 -22 7 -19 11 6 12 44 2 44 -5 0 -9 -11 -9 -25z"/>
<path d="M3067 2586 c-78 -29 -136 -111 -144 -203 -13 -144 52 -222 200 -239
99 -12 174 26 221 109 33 60 44 138 26 193 -15 46 -77 109 -124 129 -53 23
-135 27 -179 11z m87 -72 c35 -34 5 -90 -54 -103 -73 -16 -111 17 -83 72 23
45 105 64 137 31z"/>
<path d="M3540 2554 c-47 -26 -42 -26 23 -3 20 7 37 17 37 21 0 12 -10 9 -60
-18z"/>
<path d="M3586 2541 c-4 -7 -5 -15 -2 -18 9 -9 19 4 14 18 -4 11 -6 11 -12 0z"/>
<path d="M1667 2088 c6 -36 19 -55 29 -45 12 11 -6 77 -21 77 -11 0 -13 -8 -8
-32z"/>
<path d="M1823 2085 c7 -40 22 -64 34 -52 10 11 -10 80 -26 85 -11 4 -13 -3
-8 -33z"/>
<path d="M2323 2023 c-4 -9 -1 -19 5 -21 7 -2 12 -8 12 -13 0 -6 -4 -8 -9 -4
-14 8 -24 -59 -18 -119 7 -67 54 -171 96 -213 26 -26 41 -33 72 -33 52 0 84
18 139 77 105 111 170 202 170 238 0 38 -40 51 -238 80 -199 30 -221 30 -229
8z m14 -85 c-3 -8 -6 -5 -6 6 -1 11 2 17 5 13 3 -3 4 -12 1 -19z m260 -140
c-3 -8 -6 -5 -6 6 -1 11 2 17 5 13 3 -3 4 -12 1 -19z"/>
<path d="M217 1950 c-18 -95 -45 -142 -99 -176 -22 -14 -38 -30 -35 -37 2 -7
26 -16 54 -22 28 -5 58 -16 67 -24 25 -21 46 -77 46 -122 0 -40 17 -61 30 -38
5 7 13 39 19 70 12 71 38 123 87 172 44 45 40 63 -21 84 -50 17 -80 54 -101
121 -8 28 -19 52 -23 52 -4 0 -15 -36 -24 -80z m117 -120 c30 0 35 -23 11 -54
-14 -18 -35 -56 -48 -86 l-24 -53 -23 41 c-13 23 -36 48 -52 54 -15 7 -28 16
-28 21 0 4 14 26 30 49 17 22 30 45 30 49 0 4 5 20 10 35 l11 27 35 -42 c20
-22 41 -41 48 -41z"/>
<path d="M3180 1938 c0 -23 35 -98 48 -103 19 -7 15 46 -8 83 -20 32 -40 42
-40 20z"/>
<path d="M3344 1925 c-7 -18 41 -85 60 -85 23 0 25 12 9 43 -28 55 -58 73 -69
42z"/>
<path d="M1895 1255 c-41 -38 -47 -48 -41 -72 18 -73 18 -80 -6 -105 -35 -36
-138 -111 -181 -131 -83 -38 -306 -58 -396 -36 -8 2 -16 -4 -19 -13 -5 -24 39
-30 209 -26 132 3 149 5 202 30 87 41 217 149 237 199 11 25 10 35 -5 63 l-18
33 43 43 c37 37 45 41 66 32 52 -24 80 -121 51 -178 -8 -16 -20 -63 -26 -104
-26 -172 -125 -501 -191 -635 -62 -126 -97 -168 -168 -202 -136 -64 -306 -60
-522 13 -75 26 -202 73 -273 102 -33 13 -40 14 -47 2 -5 -8 -6 -18 -3 -23 7
-11 141 -72 178 -81 16 -4 71 -25 122 -47 144 -61 200 -72 328 -66 87 4 129
11 199 35 113 39 142 67 211 207 104 212 155 381 185 613 11 84 27 166 35 182
21 40 19 73 -6 123 -51 101 -91 111 -164 42z"/>
<path d="M3171 71 c-8 -29 -9 -47 -3 -53 26 -26 42 29 23 77 -7 17 -10 13 -20
-24z"/>
<path d="M2378 3 c12 -2 32 -2 45 0 12 2 2 4 -23 4 -25 0 -35 -2 -22 -4z"/>
<path d="M2548 3 c12 -2 32 -2 45 0 12 2 2 4 -23 4 -25 0 -35 -2 -22 -4z"/>
</g>
</svg>
